HIERARCHY
ROOT Hips
{
    OFFSET 0.000000 0.000000 0.000000
    CHANNELS 6 Xposition Yposition Zposition Zrotation Xrotation Yrotation
        JOINT Chest
        {
            OFFSET -0.000000 29.391830 -0.000000
            CHANNELS 3 Zrotation Xrotation Yrotation
            JOINT Neck
            {
                OFFSET -0.000000 21.536943 0.000000
                CHANNELS 3 Zrotation Xrotation Yrotation
                JOINT Head
                {
                    OFFSET -0.000000 10.450000 0.000000
                    CHANNELS 3 Zrotation Xrotation Yrotation
                    End Site
                    {
                        OFFSET -0.000000 16.150003 0.000000
                    }
                }
            }
            JOINT LeftCollar
            {
                OFFSET -0.000000 21.536943 0.000000
                CHANNELS 3 Zrotation Xrotation Yrotation
                JOINT LeftShoulder
                {
                    OFFSET 19.500000 -0.000000 0.000000
                    CHANNELS 3 Zrotation Xrotation Yrotation
                    JOINT LeftElbow
                    {
                        OFFSET 20.632557 0.000000 0.000000
                        CHANNELS 3 Zrotation Xrotation Yrotation
                        JOINT LeftWrist
                        {
                            OFFSET 24.683100 0.000000 0.000000
                            CHANNELS 3 Zrotation Xrotation Yrotation
                            End Site
                            {
                                OFFSET 0.000000 -14.250000 0.000000
                            }
                        }
                    }
                }
            }
            JOINT RightCollar
            {
                OFFSET -0.000000 21.536943 0.000000
                CHANNELS 3 Zrotation Xrotation Yrotation
                JOINT RightShoulder
                {
                    OFFSET -19.500000 0.000000 0.000000
                    CHANNELS 3 Zrotation Xrotation Yrotation
                    JOINT RightElbow
                    {
                        OFFSET -20.632557 0.000000 0.000000
                        CHANNELS 3 Zrotation Xrotation Yrotation
                        JOINT RightWrist
                        {
                            OFFSET -24.683100 0.000000 0.000000
                            CHANNELS 3 Zrotation Xrotation Yrotation
                            End Site
                            {
                                OFFSET -0.000000 -14.250000 0.000000
                            }
                        }
                    }
                }
            }
        }
    JOINT LeftHip
    {
        OFFSET 11.400001 0.000000 0.000000
        CHANNELS 3 Zrotation Xrotation Yrotation
        JOINT LeftKnee
        {
            OFFSET -0.000000 -38.134491 0.000000
            CHANNELS 3 Zrotation Xrotation Yrotation
            JOINT LeftAnkle
            {
                OFFSET -0.000000 -39.452507 0.000000
                CHANNELS 3 Zrotation Xrotation Yrotation
                End Site
                {
                    OFFSET -0.000000 -4.750000 16.150003
                }
            }
        }
    }
    JOINT RightHip
    {
        OFFSET -11.400001 0.000000 0.000000
        CHANNELS 3 Zrotation Xrotation Yrotation
        JOINT RightKnee
        {
            OFFSET -0.000000 -38.134491 0.000000
            CHANNELS 3 Zrotation Xrotation Yrotation
            JOINT RightAnkle
            {
                OFFSET -0.000000 -39.452507 0.000000
                CHANNELS 3 Zrotation Xrotation Yrotation
                End Site
                {
                    OFFSET -0.000000 -4.750000 16.150003
                }
            }
        }
    }
}
MOTION
Frames:    16
Frame Time:    0.010000
-7.876303    81.848694    21.909327    1.686518    2.425693    -79.004784    3.891333    3.827883    -12.228229    -21.063599    13.474654    19.842463    13.780598    -50.787853    23.876663    -6.182376    0.292168    -5.727154    7.626575    -13.733114    -53.242550    26.388296    -12.530504    -50.405281    97.112038    3.900805    41.090168    6.024387    0.388022    7.752128    -4.556804    7.260071    15.042111    -55.796703    -30.337889    53.216736    -105.701744    -1.988255    -53.454193    20.930975    -27.561907    3.802485    -7.977692    52.704689    -2.363269    -11.387971    -14.721088    4.825133    -10.234499    -23.821995    2.258785    0.400619    44.051937    5.224501    9.424428    -27.056223    7.807811    
-7.835031    81.692741    21.990242    1.753393    2.299573    -79.186066    3.659229    3.700746    -12.019504    -21.040020    13.636715    19.765997    13.609656    -50.820923    23.694164    -5.774195    0.270675    -5.849381    8.504826    -14.734595    -52.147694    25.647913    -11.754636    -48.803097    97.320923    3.148432    40.024822    5.651876    0.357172    7.784050    -4.139934    6.204768    14.124125    -56.509861    -30.140039    52.381062    -105.874542    -1.147272    -54.547165    21.013031    -27.596193    2.839613    -8.149090    52.751667    -2.015324    -10.733905    -15.100277    5.800760    -10.539623    -24.250706    2.774040    1.150619    44.593548    4.227316    9.611548    -27.180504    8.106259    
-7.795561    81.511757    22.098526    1.785884    2.218951    -79.443260    3.453985    3.622645    -11.720190    -20.977655    13.722865    19.677803    13.375580    -50.786182    23.479460    -5.396360    0.271509    -5.919261    9.438227    -15.634237    -51.103531    24.916933    -11.009801    -47.207859    97.443756    2.410607    38.894726    5.264932    0.332339    7.835585    -3.754940    5.138945    13.289522    -57.109039    -29.930977    51.580109    -106.131889    -0.343053    -55.511215    21.183485    -27.505800    2.030342    -8.393636    52.669529    -0.938290    -9.516807    -15.330062    6.913508    -10.778126    -24.693304    3.316463    1.855636    45.163231    3.385023    9.747448    -27.336727    8.326963    
-7.758419    81.310997    22.235661    1.782023    2.186488    -79.764244    3.287386    3.602062    -11.353232    -20.876144    13.714303    19.580301    13.087162    -50.661201    23.240297    -5.060598    0.236659    -5.932112    10.409111    -16.385330    -50.125198    24.360683    -10.366099    -45.540646    97.346283    1.654679    37.780426    4.870554    0.312409    7.906224    -3.399203    4.073487    12.557131    -57.631950    -29.697777    50.778915    -106.467888    0.448673    -56.376305    21.445328    -27.295561    1.392576    -8.680421    52.446762    0.853515    -7.711758    -15.318063    8.074192    -10.959892    -25.140680    3.798574    2.457600    45.755856    2.774467    9.828180    -27.517319    8.500975    
-7.723408    81.096359    22.402134    1.744113    2.200503    -80.128693    3.166831    3.640168    -10.948773    -20.738617    13.602096    19.477024    12.757780    -50.426941    22.986679    -4.762638    0.240262    -5.888081    11.377602    -17.069752    -49.183159    23.776249    -9.747238    -43.974941    97.219353    1.031109    36.729858    4.479024    0.285963    7.998820    -3.068673    3.026242    11.935963    -58.118355    -29.438837    49.936226    -106.862053    1.235846    -57.172760    21.788580    -26.979885    0.929777    -8.967194    52.079460    3.260401    -5.420010    -15.001720    9.181543    -11.101934    -25.581320    4.142879    2.907444    46.361668    2.447006    9.864417    -27.713882    8.662171    
-7.689718    80.873718    22.597509    1.677675    2.255815    -80.511154    3.094733    3.730474    -10.539731    -20.565559    13.394896    19.375608    12.396685    -50.079250    22.729643    -4.507833    0.242325    -5.790781    12.310839    -17.662401    -48.288452    23.322386    -9.228897    -42.440273    96.901733    0.460720    35.751118    4.102900    0.252678    8.121984    -2.756000    2.007838    11.424347    -58.583347    -29.147295    49.050297    -107.296692    2.031902    -57.930313    22.193600    -26.581511    0.634621    -9.207550    51.573864    6.112750    -2.898132    -14.373779    10.131444    -11.225519    -26.002012    4.292665    3.172181    46.965607    2.422890    9.879493    -27.917953    8.842468    
-7.656035    80.648399    22.820692    1.590473    2.345088    -80.884163    3.070788    3.862374    -10.157763    -20.363857    13.112523    19.279022    12.020671    -49.628502    22.476904    -4.300679    0.201691    -5.650939    13.163030    -18.137058    -47.443619    22.998590    -8.798742    -40.979195    96.446739    -0.021595    34.880276    3.749550    0.236379    8.277575    -2.452295    1.005824    11.018372    -59.019062    -28.821085    48.148701    -107.756630    2.849594    -58.663616    22.635406    -26.130024    0.493324    -9.358767    50.947342    9.197921    -0.500746    -13.494865    10.839917    -11.353147    -26.389383    4.218160    3.240180    47.548347    2.690276    9.904442    -28.122065    9.067199    
-7.620863    80.424644    23.070353    1.490999    2.459975    -81.221924    3.090966    4.022801    -9.828687    -20.141096    12.788592    19.190098    11.647114    -49.110847    22.237339    -4.132502    0.185302    -5.481075    13.895041    -18.569925    -46.614285    22.650698    -8.376602    -39.739948    95.971039    -0.362383    34.102283    3.430878    0.234190    8.466972    -2.159658    0.040783    10.720229    -59.461723    -28.473677    47.195065    -108.205460    3.676247    -59.373158    23.088308    -25.659163    0.490310    -9.390111    50.228134    12.291738    1.451987    -12.477580    11.268860    -11.505087    -26.730797    3.918826    3.122729    48.088318    3.207924    9.972570    -28.320375    9.352209    
-7.582866    80.205521    23.344847    1.387122    2.592397    -81.503044    3.149596    4.199158    -9.570045    -19.910955    12.459778    19.107452    11.299547    -48.574226    22.017559    -4.001571    0.172952    -5.296594    14.488104    -18.955530    -45.800179    22.378889    -8.032111    -38.664879    95.419182    -0.631580    33.396732    3.163585    0.193881    8.684722    -1.885592    -0.814021    10.536627    -59.977345    -28.113464    46.121017    -108.610710    4.508209    -60.076935    23.530378    -25.203920    0.611360    -9.289258    49.453617    15.187927    2.781032    -11.449264    11.432248    -11.695691    -27.015343    3.421023    2.851405    48.564793    3.912439    10.112955    -28.509317    9.701745    
-7.541080    79.993233    23.641701    1.285760    2.735109    -81.712761    3.239494    4.379280    -9.389807    -19.688889    12.160449    19.029282    10.999055    -48.070118    21.822336    -3.901303    0.191906    -5.117492    14.933267    -19.333132    -44.973183    22.110170    -7.724760    -37.823605    94.864937    -0.820966    32.748535    2.942241    0.194274    8.922344    -1.612820    -1.613433    10.458776    -60.469330    -27.719629    45.088894    -109.017693    5.442026    -60.780827    23.945093    -24.797440    0.844508    -9.062290    48.667992    17.719072    3.454036    -10.520154    11.379947    -11.930748    -27.235643    2.772745    2.471889    48.961838    4.727729    10.344213    -28.687397    10.107409    
-7.494828    79.788986    23.958164    1.193002    2.882668    -81.843246    3.352840    4.551218    -9.287038    -19.494188    11.924063    18.954334    10.769223    -47.650932    21.658966    -3.835842    0.158045    -4.967584    15.246462    -19.635250    -44.132271    21.973042    -7.524027    -37.124786    94.252838    -1.002335    32.155849    2.775836    0.202474    9.171478    -1.361576    -2.304522    10.492044    -61.032326    -27.327597    43.966415    -109.371498    6.414047    -61.451523    24.322788    -24.469816    1.181448    -8.731267    47.924377    19.763607    3.526565    -9.774489    11.180902    -12.206579    -27.389286    2.034618    2.033573    49.270523    5.577250    10.672463    -28.855146    10.550252    
-7.443432    79.592316    24.293137    1.113826    3.032544    -81.892540    3.482806    4.704859    -9.253012    -19.352049    11.782458    18.880844    10.635916    -47.371876    21.533043    -3.792844    0.182424    -4.871182    15.466058    -19.969616    -43.189037    21.697044    -7.283102    -36.786644    93.762390    -1.083385    31.597027    2.666780    0.204671    9.418823    -1.133234    -2.852899    10.634440    -61.673756    -26.924189    42.765270    -109.689369    7.475886    -62.101669    24.662407    -24.248257    1.619971    -8.330821    47.287083    21.244192    3.090943    -9.276898    10.907701    -12.511229    -27.478834    1.271269    1.579994    49.489685    6.393473    11.093170    -29.014738    11.004388    
-7.386002    79.401085    24.648022    1.052272    3.185148    -81.863144    3.622977    4.831718    -9.273756    -19.286127    11.767120    18.807032    10.622884    -47.289459    21.451176    -3.776905    0.181070    -4.839979    15.650300    -20.252600    -42.142220    21.493439    -7.167414    -36.622677    93.285088    -1.157598    31.049940    2.609353    0.229768    9.653094    -0.925199    -3.268618    10.882186    -62.373230    -26.501396    41.519802    -109.995598    8.674680    -62.720154    24.970987    -24.157114    2.163153    -7.903202    46.828136    22.127827    2.251823    -9.078002    10.620777    -12.827238    -27.511597    0.545575    1.144588    49.624870    7.120453    11.594736    -29.169582    11.442699    
-7.321485    79.212502    25.025824    1.011557    3.342604    -81.761284    3.767306    4.925414    -9.332059    -19.308504    11.898407    18.731030    10.741236    -47.443523    21.415337    -3.784038    0.161822    -4.867294    15.841577    -20.474920    -40.973152    21.257786    -7.085608    -36.710197    92.879234    -1.197660    30.519510    2.613789    0.202143    9.868612    -0.757460    -3.466847    11.235434    -63.228848    -26.061720    40.082413    -110.263168    9.977822    -63.315918    25.259933    -24.215275    2.813222    -7.490973    46.615131    22.427212    1.120201    -9.210151    10.356998    -13.134767    -27.498787    -0.085163    0.750758    49.686302    7.713171    12.160099    -29.322773    11.840265    
-7.248866    79.024117    25.430008    0.993955    3.507190    -81.595871    3.910272    4.982575    -9.409508    -19.412596    12.169784    18.643656    10.983038    -47.829647    21.415342    -3.807658    0.163848    -4.935802    16.072588    -20.654949    -39.687321    20.973200    -6.999805    -37.049637    92.565483    -1.193363    30.015541    2.657164    0.209764    10.061300    -0.600193    -3.542139    11.670435    -64.118767    -25.571777    38.643436    -110.559250    11.494124    -63.895981    25.540064    -24.432894    3.565582    -7.128791    46.697750    22.191862    -0.187345    -9.679299    10.133830    -13.415115    -27.453577    -0.572276    0.414002    49.686607    8.138782    12.766676    -29.476936    12.173248    
-7.167233    78.834656    25.863913    1.000802    3.680422    -81.377457    4.046353    5.002141    -9.487710    -19.567356    12.550115    18.534370    11.311862    -48.402370    21.429712    -3.844917    0.195175    -5.018340    16.359623    -20.780294    -38.326302    20.681602    -6.962007    -37.568680    92.348434    -1.144572    29.523153    2.729581    0.251148    10.235811    -0.461404    -3.520538    12.166862    -65.092056    -25.048000    37.108547    -110.849602    13.154963    -64.446571    25.818268    -24.808607    4.405277    -6.839373    47.096603    21.496222    -1.550347    -10.460055    9.962451    -13.653438    -27.388739    -0.877281    0.145016    49.638283    8.375707    13.387752    -29.633963    12.418340    
